<svg height="512" viewBox="0 0 192 192" width="512" xmlns="http://www.w3.org/2000/svg" xmlns:xlink="http://www.w3.org/1999/xlink"><linearGradient id="New_Gradient_Swatch_1" gradientUnits="userSpaceOnUse" x1="73.383" x2="118.617" y1="118.617" y2="73.383"><stop offset="0" stop-color="#34cdfa"/><stop offset="1" stop-color="#e8d9f1"/></linearGradient><path d="m181.455 51.759a23.976 23.976 0 0 0 -22.369-2.41l-58.057 23.223a8 8 0 0 0 -5.029 7.428 8 8 0 0 0 -5.029-7.428l-58.057-23.223a24 24 0 0 0 -32.914 22.283v48.736a24.231 24.231 0 0 0 21.581 23.881 24.064 24.064 0 0 0 11.333-1.6l58.057-23.223a8 8 0 0 0 5.029-7.426 8 8 0 0 0 5.029 7.428l58.057 23.223a23.993 23.993 0 0 0 32.914-22.283v-48.736a23.973 23.973 0 0 0 -10.545-19.873z" fill="#ccf2fe"/><path d="m159.086 126.651-58.057-23.223a8 8 0 0 1 -5.029-7.428 8 8 0 0 1 -5.029 7.428l-58.057 23.223a24.064 24.064 0 0 1 -11.333 1.6 24.231 24.231 0 0 1 -21.581-23.883v16a24.231 24.231 0 0 0 21.581 23.881 24.064 24.064 0 0 0 11.333-1.6l58.057-23.223a8 8 0 0 0 5.029-7.426 8 8 0 0 0 5.029 7.428l58.057 23.223a23.993 23.993 0 0 0 32.914-22.283v-16a23.993 23.993 0 0 1 -32.914 22.283z" fill="#99e6fd"/><path d="m120 88h24v16h-24z" fill="#67d9fb"/><path d="m48 88h24v16h-24z" fill="#67d9fb"/><circle cx="96" cy="96" fill="url(#New_Gradient_Swatch_1)" r="32"/></svg>