<svg height="512pt" viewBox="0 -86 512.0012 512" width="512pt" xmlns="http://www.w3.org/2000/svg"><path d="m290.097656 116.242188c27.394532-27.683594 95.742188-89.15625 163.902344-90.65625-.285156-.832032-.570312-1.640626-.855469-2.425782-4.367187-12.097656-12.519531-20.390625-21.792969-22.136718-62.34375-11.722657-128.355468 80.386718-148.5625 111.300781 2.527344 1.15625 4.96875 2.460937 7.308594 3.917969zm0 0" fill="#22a7ff"/><path d="m432.8125 1.367188c-.484375-.128907-.96875-.25-1.460938-.339844-62.34375-11.726563-128.355468 80.382812-148.5625 111.300781 2.527344 1.152344 4.96875 2.457031 7.308594 3.914063 9.867188-9.972657 25.054688-24.332032 43.628906-38.691407 24.808594-31.242187 61.445313-68.664062 99.085938-76.183593zm0 0" fill="#0094fd"/><path d="m290.097656 223.953125c-2.339844 1.457031-4.78125 2.761719-7.308594 3.914063 20.207032 30.917968 86.21875 123.023437 148.5625 111.300781 9.273438-1.742188 17.425782-10.035157 21.792969-22.132813.285157-.785156.570313-1.59375.855469-2.425781-68.160156-1.503906-136.507812-62.972656-163.902344-90.65625zm0 0" fill="#22a7ff"/><path d="m337.863281 265.796875c-20.457031-15.386719-37.175781-31.140625-47.765625-41.84375-2.339844 1.457031-4.78125 2.761719-7.308594 3.914063 20.207032 30.917968 86.21875 123.023437 148.5625 111.300781.71875-.132813 1.429688-.324219 2.132813-.535157-36.054687-7.679687-71.101563-42.539062-95.621094-72.835937zm0 0" fill="#0094fd"/><path d="m495.386719 159.019531c28.839843-48.71875 13.785156-92.738281 2.121093-114.804687-5.4375-10.292969-15.589843-17.347656-27.140624-18.832032-73.304688-9.417968-150.683594 59.921876-180.273438 89.828126 18.324219 11.40625 30.523438 31.714843 30.523438 54.886718 0 23.167969-12.203126 43.480469-30.523438 54.886719 29.589844 29.90625 106.96875 99.246094 180.273438 89.828125 11.546874-1.484375 21.699218-8.539062 27.140624-18.832031 11.660157-22.066407 26.71875-66.085938-2.121093-114.804688-4.03125-6.808593-4.03125-15.347656 0-22.15625zm0 0" fill="#60b8ff"/><path d="m221.90625 116.242188c2.339844-1.457032 4.78125-2.761719 7.308594-3.914063-20.207032-30.917969-86.21875-123.027344-148.5625-111.300781-9.273438 1.742187-17.425782 10.035156-21.792969 22.132812-.285156.785156-.570313 1.59375-.855469 2.425782 68.160156 1.5 136.507813 62.972656 163.902344 90.65625zm0 0" fill="#22a7ff"/><path d="m221.90625 223.953125c-27.394531 27.683594-95.742188 89.152344-163.902344 90.65625.285156.832031.570313 1.640625.855469 2.425781 4.367187 12.097656 12.519531 20.390625 21.792969 22.132813 62.34375 11.722656 128.355468-80.382813 148.5625-111.300781-2.527344-1.152344-4.96875-2.457032-7.308594-3.914063zm0 0" fill="#22a7ff"/><path d="m116.601562 12.101562c4.890626-.921874 9.800782-1.199218 14.710938-.921874-16.496094-8.84375-33.714844-13.339844-50.660156-10.152344-9.273438 1.742187-17.425782 10.035156-21.792969 22.132812-.285156.785156-.570313 1.59375-.855469 2.425782 12.636719.277343 25.28125 2.621093 37.667969 6.425781 4.527344-10.886719 12.238281-18.273438 20.929687-19.910157zm0 0" fill="#0094fd"/><path d="m117.671875 329.125c-9.011719-1.695312-16.949219-9.582031-21.402344-21.125-12.578125 3.914062-25.425781 6.328125-38.269531 6.609375.289062.832031.574219 1.640625.855469 2.425781 4.367187 12.097656 12.519531 20.390625 21.792969 22.132813 16.214843 3.050781 32.671874-.933594 48.511718-9.027344-3.835937.023437-7.667968-.300781-11.488281-1.015625zm0 0" fill="#0094fd"/><path d="m191.382812 170.097656c0-23.171875 12.203126-43.480468 30.523438-54.886718-29.585938-29.90625-106.96875-99.246094-180.273438-89.828126-11.546874 1.484376-21.699218 8.539063-27.136718 18.832032-11.664063 22.066406-26.71875 66.085937 2.121094 114.804687 4.027343 6.808594 4.027343 15.347657 0 22.15625-28.839844 48.71875-13.785157 92.738281-2.121094 114.804688 5.4375 10.292969 15.589844 17.347656 27.136718 18.832031 73.304688 9.417969 150.6875-59.921875 180.273438-89.828125-18.320312-11.40625-30.523438-31.71875-30.523438-54.886719zm0 0" fill="#60b8ff"/><path d="m310.238281 244.054688c24.6875-15.367188 41.132813-42.734376 41.132813-73.957032s-16.445313-58.589844-41.132813-73.960937c.175781-.171875.359375-.355469.535157-.535157-8.273438 7.371094-15.273438 14.148438-20.679688 19.609376 18.324219 11.40625 30.527344 31.714843 30.527344 54.886718 0 23.167969-12.203125 43.480469-30.527344 54.886719 5.402344 5.460937 12.40625 12.238281 20.675781 19.609375-.171875-.179688-.355469-.363281-.53125-.539062zm0 0" fill="#22a7ff"/><path d="m45.144531 295.980469c-11.660156-22.066407-26.71875-66.085938 2.121094-114.804688 4.03125-6.808593 4.03125-15.347656 0-22.15625-28.839844-48.71875-13.785156-92.738281-2.121094-114.804687 5.261719-9.957032 14.9375-16.871094 26.015625-18.652344-9.832031-1.277344-19.714844-1.441406-29.527344-.179688-11.546874 1.484376-21.699218 8.539063-27.140624 18.832032-11.660157 22.066406-26.714844 66.085937 2.121093 114.804687 4.03125 6.808594 4.03125 15.347657 0 22.15625-28.835937 48.71875-13.78125 92.738281-2.121093 114.804688 5.441406 10.292969 15.59375 17.347656 27.140624 18.832031 9.8125 1.261719 19.695313 1.101562 29.527344-.179688-11.078125-1.785156-20.753906-8.695312-26.015625-18.652343zm0 0" fill="#22a7ff"/><g fill="#0094fd"><path d="m304.382812 205.785156c-3.363281-2.625-3.960937-7.480468-1.335937-10.847656 2.625-3.359375 7.480469-3.957031 10.84375-1.335938 13.890625 10.84375 34.410156 23.304688 53.359375 21.046876 4.242188-.492188 8.078125 2.527343 8.582031 6.765624.503907 4.234376-2.527343 8.078126-6.761719 8.582032-22.90625 2.710937-46.574218-10.074219-64.6875-24.210938zm0 0"/><path d="m303.425781 144.929688c-2.613281-3.371094-2-8.226563 1.371094-10.839844 16.070313-12.46875 40.265625-26.730469 64.273437-23.890625 4.234376.503906 7.265626 4.34375 6.761719 8.582031-.503906 4.238281-4.347656 7.261719-8.582031 6.765625-18.8125-2.242187-39.195312 10.050781-52.980469 20.75-3.363281 2.613281-8.21875 2.011719-10.84375-1.367187zm0 0"/><path d="m142.972656 230c-4.238281-.480469-7.289062-4.308594-6.808594-8.546875.480469-4.242187 4.316407-7.285156 8.546876-6.808594 20.042968 2.269531 41.660156-10.246093 56.265624-21.144531 3.421876-2.546875 8.265626-1.847656 10.816407 1.574219s1.847656 8.261719-1.574219 10.816406c-19.007812 14.175781-43.601562 26.792969-67.246094 24.109375zm0 0"/><path d="m200.585938 146.398438c-14.507813-10.753907-35.976563-23.105469-55.871094-20.847657-4.253906.472657-8.070313-2.570312-8.550782-6.808593-.480468-4.238282 2.570313-8.066407 6.808594-8.546876 24.898438-2.824218 50.078125 11.382813 66.816406 23.792969 3.425782 2.539063 4.144532 7.378907 1.601563 10.808594-2.539063 3.425781-7.378906 4.144531-10.804687 1.601563zm0 0"/><path d="m256 104.449219c-36.199219 0-65.648438 29.449219-65.648438 65.648437 0 36.199219 29.449219 65.648438 65.648438 65.648438s65.652344-29.449219 65.652344-65.648438c0-36.199218-29.453125-65.648437-65.652344-65.648437zm0 0"/></g><path d="m221.261719 170.097656c0-30.875 21.429687-56.828125 50.195312-63.796875-4.960937-1.199219-10.132812-1.851562-15.457031-1.851562-36.199219 0-65.648438 29.449219-65.648438 65.648437 0 36.199219 29.449219 65.648438 65.648438 65.648438 5.324219 0 10.496094-.652344 15.457031-1.855469-28.765625-6.96875-50.195312-32.917969-50.195312-63.792969zm0 0" fill="#0083fd"/></svg>