<svg id="Capa_1" enable-background="new 0 0 510.949 510.949" height="512" viewBox="0 0 510.949 510.949" width="512" xmlns="http://www.w3.org/2000/svg"><g><g><g><g><path d="m334.159 334.258c7.513 14.765 17.628 38.097 32.654 46.763l-6.863 32.026h30l11.362-52.532s-12.167-3.615-21.594-14.936-11.725-23.681-11.725-23.681z" fill="#df95c0"/></g><g><path d="m210.401 206.166c-2.219-123.847-192.538-123.868-194.773-.002-3.928 37.759 22.516 71.901 61.52 71.947h71.731c11.334 0 21.953-3.065 31.071-8.411 22.796-14.462 32.412-36.142 30.451-63.534z" fill="#eab8d5"/></g><g><path d="m186.914 246.727c-9.119 5.346-19.737 8.411-31.071 8.411h-71.732c-39.004-.046-65.449-34.188-61.52-71.947.106-5.861.634-11.443 1.542-16.749-5.168 11.407-8.233 24.643-8.505 39.722-3.928 37.759 22.516 71.901 61.52 71.947h71.731c11.334 0 21.953-3.065 31.071-8.411 18.08-11.47 27.861-27.487 30.159-47.288-5.064 9.525-12.739 17.681-23.195 24.315z" fill="#df95c0"/></g><g><path d="m369.276 127.175c-52.44-13.138-105.115-6.168-156.656 7.633 0 0-4.621 13.775-15.838 21.996 8.235 13.373 13.268 29.826 13.618 49.363 1.96 27.392-7.655 49.072-30.45 63.533-9.119 5.346-19.737 8.411-31.071 8.411h-66.206c2.839 29.082 20.949 60.878 53.277 97.511 4.245 4.428 6.641 10.305 6.641 16.438v20.987h59.571l32.17-67.468c45.637 1.947 91.239-7.006 133.659-23.681 5.374 17.756 14.878 32.639 33.319 38.617l-11.362 52.532h29.634l16.085-67.468s18.593-22.532 27.274-38.905c5.695-11.201 5.979-21.968 5.979-21.968 16.322-66.838-28.721-143.431-99.644-157.531z" fill="#eab8d5"/></g><g><g><path d="m428.502 345.579c-38.553 0-42.347-39.338-43.66-60.064h-21.175l.989 16.368c-33.301 11.527-70.433 19.983-105.186 21.405 0 0 2.475-10.965 1.115-22.773h-20.636c1.404 26.745-5.617 45.064-5.617 45.064 45.637 1.947 91.239-7.006 133.659-23.681 4.307 14.229 14.272 33.123 32.079 37.625l-3.642 23.564h30z" fill="#df95c0"/></g></g><g><path d="m196.782 156.804c21.161-15.04 21.172-50.053 21.172-50.053 0-4.781-3.876-8.657-8.657-8.656-27.294-.875-39.777 1.265-60.141 20.64 0 0 29.487 7.832 47.626 38.069z" fill="#df95c0"/></g><g><path d="m193.536 360.962c-1.401-5.801-3.682-11.381-6.788-16.539-7.357-10.493-6.406-33.604-6.285-47.829 49.794-16.474 49.982-86.136 24.762-121.692 15.364 46.688-1.373 98.812-56.346 103.21-14.397 1.152-52.24.052-66.207 0 2.839 29.082 20.949 60.878 53.277 97.511 2.093 2.183 3.731 4.721 4.86 7.466 0 0 58.467-.007 75.638-.007l10.55-22.119h-33.461zm-42.516 0c-18.655-21.851-32.086-41.974-40.07-60.838 2.488-.074 54.061.217 54.475-.254-.187 26.192-.487 34.587 12.501 61.092z" fill="#df95c0"/></g><g><path d="m28.665 156.804c-21.161-15.04-21.172-50.053-21.172-50.053 0-4.781 3.876-8.657 8.657-8.656 27.294-.875 39.777 1.265 60.141 20.64-.001 0-29.487 7.832-47.626 38.069z" fill="#df95c0"/></g><g><path d="m148.907 248.047h-71.842c-4.997 0-9.047-3.93-9.047-8.777 0-24.094 20.133-43.627 44.968-43.627 24.835 0 44.968 19.532 44.968 43.627 0 4.847-4.051 8.777-9.047 8.777z" fill="#df95c0"/></g><g><path d="m142.713 383.087h29.96v29.96h-29.96z" fill="#48474a"/></g><g><path d="m389.949 413.047h-30l5.881-29.96h30.599z" fill="#48474a"/></g><g><path d="m419.949 413.047h-30l5.881-29.96h30.599z" fill="#68676b"/></g><g><path d="m202.632 413.047h-29.959v-29.96h43.774z" fill="#68676b"/></g><g><g><path d="m267.765 159.951-1.844-14.887c3.753-.504 11.319-1.351 15.087-1.684l1.483 14.927c-3.68.326-11.066 1.15-14.726 1.644z" fill="#fff"/></g><g><path d="m238.868 164.909-3.172-14.661c5.392-1.128 10.024-2.005 15.129-2.87l2.385 14.81c-4.687.793-9.367 1.68-14.342 2.721z" fill="#fff"/></g></g></g></g><g><path d="m77.065 255.547h71.842c36.928-4.088 7.749-70.093-35.921-67.403-43.676-2.687-72.845 63.316-35.921 67.403zm35.921-52.405c20.66 0 37.468 16.207 37.468 36.127 0 .692-.708 1.277-1.547 1.277h-13.926v-15.032h-15v15.032h-14.617v-15.032h-15v15.032h-13.299c-.838 0-1.547-.585-1.547-1.277 0-19.92 16.808-36.127 37.468-36.127z"/><path d="m150.454 172.792h15v15h-15z"/><path d="m60.454 172.792h15v15h-15z"/><path d="m451.806 308.363 13.173 7.175c2.57-4.718 4.842-9.652 6.752-14.666l-14.017-5.342c-1.671 4.386-3.659 8.704-5.908 12.833z"/><path d="m484.007 163.554c7.389 1.709 16.427 2.99 26.942 2.99v-15c-7.226 0-13.628-.694-19.129-1.702 7.86-19.154-.538-35.667-19.509-36.828-22.908.023-30.883 30.639-11.326 41.93l-.002.004c.279.174 2.92 1.786 7.676 3.754-4.017 4.402-9.476 9.149-16.898 13.967-54.963-70.698-138.151-67.156-227.392-48.526 1.135-5.449 1.136-11.768 1.085-17.392 0-8.909-7.248-16.157-16.157-16.157-25.198-1.011-42.93 1.475-61.825 19.674-9.496-2.983-19.593-4.594-30.06-4.594-13.113-.36-27.086.602-39.183 4.701-8.879-8.362-19.496-15.295-31.51-18.005l-3.531 14.578c7.146 1.731 13.865 5.139 19.51 9.848-13.478 6.954-25.188 16.869-34.27 28.878-10.161-10.33-15.775-40.079-12.148-40.079h13.67v-15h-13.67c-8.909 0-16.157 7.248-16.157 16.157-1.131 19.429 5.598 38.521 19.989 51.859-9.57 16.862-12.909 37.899-11.984 57.978-.001 37.712 30.405 68.438 67.987 68.995 4.706 28.222 22.321 58.961 54.421 95.228 2.937 3.063 4.554 7.057 4.554 11.247v28.487h71.805l32.091-67.303c29.982.783 60.374-2.898 90.813-10.938 7.181 14.467 15.742 32.082 28.622 42.08l-7.749 36.161h74.833l17.126-71.835 13.817-19.709-12.282-8.61-15.461 22.055-7.901 33.141h-15.08l4.351-20.116c-31.045-8.238-37.572-32.538-38.907-69.957h-15c0 12.315 1.853 24.47 3.189 31.639-38.686 14.457-77.468 21.569-115.498 21.164 2.746-12.375 3.799-25.118 3.59-37.802h-15c.573 34.785-6.281 45.334-20.735 75.072h-31.542c.988-24.629-14.746-32.383-14.719-53.787.001 0 .001-21.285.001-21.285h-15c.153 6.527-.494 24.068.697 30.263-10.361-3.691-30.696-13.418-30.778-13.476l12.858 19s8.989 6.672 23.409 11.749c5.042 8.379 8.941 17.563 8.532 27.537h-19.802c-27.744-31.977-49.92-64.873-53.989-89.977h57.499c12.274 0 24.33-3.265 34.865-9.441l-7.587-12.94c-8.236 4.829-17.668 7.381-27.278 7.381h-71.732c-29.788 0-54.021-24.234-54.021-54.021-4.632-50.548 33.935-96.217 85.491-95.914 50.038-4.076 94.545 34.713 94.283 85.49 1.078 18.079-2.366 35.694-15.88 48.681l10.591 10.623c16.115-15.433 21.723-37.545 20.289-59.305.001-17.311-4.399-33.614-12.14-47.849 5.265-5.067 9.687-10.947 12.896-17.321 87.755-20.464 176.69-26.165 225.8 47.549 18.483 28.997 24.745 63.398 17.179 94.383l14.572 3.558c8.121-33.257 2.193-69.86-16.224-101.273 11.227-7.318 18.855-14.788 24.023-21.659zm-11.696-35.539c9.857.176 9.855 14.825 0 15-9.857-.176-9.855-14.825 0-15zm-103.084 277.532 3.206-14.959h14.701l-3.235 14.959zm48.001-14.96-3.566 14.959h-14.417l3.236-14.959zm-24.594-25.431-2.256 10.431h-17.974c-12.304-6.194-20.93-23.498-27.949-37.493 6.327-1.962 12.653-4.09 18.975-6.429 6.369 16.307 15.996 27.349 29.204 33.491zm-188.072 25.431-7.133 14.959h-17.256v-14.959zm-39.389 0v14.959h-15.083c-.011-.609.031-14.947-.035-14.959zm32.227-245.176c-9.117-11.975-20.853-21.853-34.352-28.762 13.309-11.627 29.632-11.498 46.249-11.053.638-.001 1.157.518 1.157 1.156.856 14.155-3.064 28.356-13.054 38.659z"/></g></g></svg>